<svg xmlns="http://www.w3.org/2000/svg" width="260" height="210" viewBox="0 0 260 210" role="img" aria-label="Syrian Renewables">
  <defs>
    <linearGradient id="sun" x1="48" y1="22" x2="120" y2="102" gradientUnits="userSpaceOnUse">
      <stop offset="0" stop-color="#FFD36B" />
      <stop offset="1" stop-color="#F59E0B" />
    </linearGradient>
    <linearGradient id="sky" x1="72" y1="42" x2="200" y2="142" gradientUnits="userSpaceOnUse">
      <stop offset="0" stop-color="#7FD8E8" />
      <stop offset="0.55" stop-color="#83DCCF" />
      <stop offset="1" stop-color="#36B37E" />
    </linearGradient>
    <linearGradient id="leaf" x1="132" y1="116" x2="216" y2="160" gradientUnits="userSpaceOnUse">
      <stop offset="0" stop-color="#83D66D" />
      <stop offset="1" stop-color="#159A5A" />
    </linearGradient>
    <filter id="shadow" x="-20%" y="-20%" width="140%" height="140%">
      <feDropShadow dx="0" dy="4" stdDeviation="4" flood-color="#063B5C" flood-opacity="0.18" />
    </filter>
  </defs>

  <g filter="url(#shadow)">
    <path d="M126 14C82 15 45 40 31 78c28-12 62-16 94-10 27 5 51 16 72 32C198 53 166 13 126 14Z" fill="url(#sun)" />
    <path d="M39 82c34-24 82-30 123-15 49 18 78 66 70 116-39 13-88 8-128-14-48-27-72-73-65-87Z" fill="url(#sky)" opacity="0.95" />
    <path d="M128 28l8 101-15 1 6-102h1Z" fill="#063B5C" />
    <circle cx="129" cy="76" r="10" fill="#063B5C" />
    <path d="M134 73l68-38c9-5 15 8 6 13l-69 36-5-11Z" fill="#063B5C" />
    <path d="M124 80L53 119c-9 5-15-8-6-13l71-37 6 11Z" fill="#063B5C" />
    <path d="M130 85l39 71c5 9-8 15-13 6l-38-72 12-5Z" fill="#063B5C" />
    <path d="M147 176c-6-47 20-90 78-126 4 55-24 103-78 126Z" fill="url(#leaf)" />
    <path d="M158 162c19-35 42-64 69-87" fill="none" stroke="#075A35" stroke-width="6" stroke-linecap="round" />
    <path d="M76 126c18 12 43 16 70 11-23 17-52 25-82 20-12-2-24-6-35-12 12-9 28-15 47-19Z" fill="#52C4A9" opacity="0.9" />
    <path d="M59 72c15-17 37-29 63-34" fill="none" stroke="#B7791F" stroke-width="4" stroke-linecap="round" opacity="0.6" />
    <path d="M82 51l-9-12M110 42l-4-15M139 42l3-15" stroke="#8A5A16" stroke-width="3" stroke-linecap="round" opacity="0.5" />
  </g>

  <text x="130" y="190" text-anchor="middle" font-family="Arial,Tahoma,sans-serif" font-size="28" font-weight="900" fill="#063B5C" letter-spacing="1">SYRIAN</text>
  <text x="130" y="208" text-anchor="middle" font-family="Arial,Tahoma,sans-serif" font-size="17" font-weight="900" fill="#063B5C" letter-spacing="0.6">RENEWABLES</text>
</svg>
