<svg xmlns="http://www.w3.org/2000/svg" width="512" height="342" viewBox="0 0 512 342" role="img" aria-labelledby="title desc">
  <title id="title">Syrian Renewables</title>
  <desc id="desc">Syrian Renewables platform logo with renewable energy symbols.</desc>
  <defs>
    <linearGradient id="sky" x1="90" y1="60" x2="400" y2="240" gradientUnits="userSpaceOnUse">
      <stop offset="0" stop-color="#72D3E1"/>
      <stop offset="0.46" stop-color="#84D9CF"/>
      <stop offset="1" stop-color="#2DB876"/>
    </linearGradient>
    <linearGradient id="leaf" x1="255" y1="176" x2="365" y2="250" gradientUnits="userSpaceOnUse">
      <stop offset="0" stop-color="#7BD36B"/>
      <stop offset="1" stop-color="#159A5A"/>
    </linearGradient>
    <linearGradient id="sun" x1="120" y1="72" x2="234" y2="168" gradientUnits="userSpaceOnUse">
      <stop offset="0" stop-color="#FFD262"/>
      <stop offset="1" stop-color="#F6A51A"/>
    </linearGradient>
    <filter id="softShadow" x="-20%" y="-20%" width="140%" height="140%">
      <feDropShadow dx="0" dy="8" stdDeviation="7" flood-color="#0B3950" flood-opacity="0.18"/>
    </filter>
  </defs>
  <rect width="512" height="342" fill="none"/>
  <g filter="url(#softShadow)">
    <path d="M255 29c-61 0-112 33-139 81 26-9 55-15 88-16 36-1 71 5 101 17 22 9 43 21 63 36 7-57-38-118-113-118Z" fill="url(#sun)"/>
    <path d="M129 115c33-21 77-29 119-23 86 13 149 87 141 176-34 17-75 25-118 20-94-11-163-85-154-166 4-3 8-5 12-7Z" fill="url(#sky)" opacity="0.92"/>
    <path d="M351 142c-23 34-54 60-91 77 22 6 47 5 75-7 24-11 43-29 56-50-12-8-25-15-40-20Z" fill="#5DC6CE" opacity="0.95"/>
    <path d="M251 71l10 126-17 1 6-127h1Z" fill="#053A5C"/>
    <circle cx="252" cy="127" r="13" fill="#063B5C"/>
    <path d="M258 124l82-46c10-6 18 8 8 15l-83 43-7-12Z" fill="#063B5C"/>
    <path d="M246 130l-86 48c-10 6-18-8-8-15l86-46 8 13Z" fill="#063B5C"/>
    <path d="M252 132l47 86c6 10-8 18-15 8l-46-88 14-6Z" fill="#063B5C"/>
    <path d="M283 254c-6-55 22-104 88-144 4 62-27 118-88 144Z" fill="url(#leaf)"/>
    <path d="M292 239c21-38 48-70 81-96" fill="none" stroke="#075A35" stroke-width="6" stroke-linecap="round"/>
    <path d="M186 204c13 10 30 15 53 12-17 14-39 22-64 22-20 0-38-5-54-14 12-10 33-14 65-20Z" fill="#50C2A5" opacity="0.9"/>
    <path d="M147 108c16-18 38-30 67-36" fill="none" stroke="#C97A0B" stroke-width="4" stroke-linecap="round" opacity="0.55"/>
    <path d="M169 90l-11-13M196 80l-5-17M224 78l3-17" stroke="#9C6612" stroke-width="3" stroke-linecap="round" opacity="0.45"/>
  </g>
  <text x="256" y="296" text-anchor="middle" font-family="Arial, Tahoma, sans-serif" font-size="44" font-weight="900" fill="#063B5C" letter-spacing="1">SYRIAN</text>
  <text x="256" y="325" text-anchor="middle" font-family="Arial, Tahoma, sans-serif" font-size="28" font-weight="900" fill="#063B5C" letter-spacing="0.5">RENEWABLES</text>
</svg>
